<svg height="1024" preserveAspectRatio="none" viewBox="0 0 1024 1024" width="1024" xmlns="http://www.w3.org/2000/svg"><path d="m969.6 351.25q-8.6-20.85-19.4-40.85-6.1-11.35-12.9-22.4-29.35-47.55-71.55-89.8-138.25-138.25-333.8-138.25-195.5 0-333.75 138.25-138.25 138.25-138.25 333.75 0 195.55 138.25 333.8 138.25 138.2 333.75 138.2 195.55 0 333.8-138.2 76.15-76.2 110.35-169.75 27.85-76.25 27.85-164.05 0-67.35-16.4-127.95-1.85-6.85-3.9-13.6-6.15-19.95-14.05-39.15z" fill-opacity=".098039"/><path d="m969.7 392q-1.75-6.85-3.65-13.6-1.52421875-5.28554687-3.2-10.55-2.47128906-7.946875-5.25-15.8-9.75-27.55-23.15-53.65-5.8-11.35-12.3-22.4-30.65-52-76.35-97.75-109-109-253.65-132.05-24.5-3.9-50.05-5.35-14.9-.85-30.1-.85-14.1 0-27.9.75-177.55 9.2-305.85 137.5-138.25 138.25-138.25 333.75 0 195.55 138.25 333.8 84.79003906 84.75703125 191.1 117.55 54.53808594 16.81308594 114.75 19.95.2 0 .4 0 12.15.6 24.5.7 1.5 0 3 0 15.25 0 30.1-.8 3.5-.2 6.95-.45 30.05-2.15 58.7-7.7 11.8-2.3 23.4-5.15 120.6-30.05 214.65-124.1 72.9-72.95 107.35-161.8 27.75-71.6 30.55-153.5.3-9.2.3-18.5 0-1 0-2 0-.5 0-1-.35-61.3-14.3-117z" fill="#72e79f"/><path d="m983.7 530.5q.08867188-2.72011719.15-5.45l-244.85-244.85-204 208.7-223-32.85-92 15.5 476.5 476.5q81.55527344-34.50527344 149.3-102.25 72.9-72.95 107.35-161.8 27.75-71.6 30.55-153.5z" fill-opacity=".2"/><path d="m676.55 391.9q25.75 7.9 49.5-7.9 23.75-13.85 29.65-41.55 9.9-35.65-15.8-61.35-19.8-19.8-47.5-19.8-27.7 0-47.5 19.8-27.7 27.7-17.8 65.3l-73.2 71.2q-27.7-13.85-59.4-7.9-31.65 5.95-53.4 27.7l-7.95 9.9-98.9-35.6q-4-19.8-17.85-33.65-19.75-19.8-47.45-19.8-27.75 0-47.5 19.8-19.8 21.75-19.8 47.5 0 27.7 19.8 47.5 19.75 19.75 45.5 19.75 25.7 0 47.5-15.8l96.95 33.65q0 43.5 29.7 69.25 29.65 29.65 69.25 29.65l35.6 98.95q-19.75 21.8-17.8 49.5 2 27.7 23.75 45.5 21.75 19.8 47.5 17.8 27.7 0 47.5-21.75 17.8-19.8 15.8-47.5 0-25.75-19.75-45.5-13.85-13.85-33.65-17.8l-35.65-98.95 9.9-7.95q49.5-49.45 19.8-114.75z" fill="#fff"/></svg>